<?xml version="1.0" standalone="no"?><!DOCTYPE svg PUBLIC "-//W3C//DTD SVG 1.1//EN" "http://www.w3.org/Graphics/SVG/1.1/DTD/svg11.dtd"><svg t="1776748139484" class="icon" viewBox="0 0 1024 1024" version="1.1" xmlns="http://www.w3.org/2000/svg" p-id="22770" xmlns:xlink="http://www.w3.org/1999/xlink" width="200" height="200"><path d="M403.264 126.976a64 64 0 0 1 45.184 18.688l69.12 68.864h362.432a64 64 0 0 1 64 62.976v555.52a64 64 0 0 1-64 64H144a64 64 0 0 1-64-64V190.976a64 64 0 0 1 64-64z m-13.184 96H176v578.048h672V310.528H504.384a64 64 0 0 1-44.672-18.176l-0.512-0.448-69.12-68.928zM560 387.008v131.968h132.032v96H560v132.032h-96V614.976H331.968v-96H464V387.008h96z" fill="#000000" p-id="22771"></path></svg>